<svg xmlns="http://www.w3.org/2000/svg" width="1200" height="430" viewBox="0 0 1200 430">
<rect width="1200" height="430" fill="white"/>
<text x="50" y="55" font-family="Arial" font-size="29" font-weight="700">Training Evidence Decision Value</text>
<text x="50" y="88" font-family="Arial" font-size="16">Pinned experimental subset → effect estimate → uncertainty → threshold frontier → bounded interpretation</text>
<g font-family="Arial" text-anchor="middle">
<rect x="35" y="145" width="190" height="135" rx="15" fill="#f5f5f5" stroke="#222"/><text x="130" y="185" font-size="16" font-weight="700">Pinned NSW data</text><text x="130" y="215" font-size="14">185 treated + 260 control</text>
<rect x="270" y="145" width="190" height="135" rx="15" fill="#f5f5f5" stroke="#222"/><text x="365" y="185" font-size="16" font-weight="700">Effect estimate</text><text x="365" y="215" font-size="14">RE78 mean difference</text>
<rect x="505" y="145" width="190" height="135" rx="15" fill="#f5f5f5" stroke="#222"/><text x="600" y="185" font-size="16" font-weight="700">Uncertainty</text><text x="600" y="215" font-size="14">normal + bootstrap + permutation</text>
<rect x="740" y="145" width="190" height="135" rx="15" fill="#f5f5f5" stroke="#222"/><text x="835" y="185" font-size="16" font-weight="700">Frontier</text><text x="835" y="215" font-size="14">0–4,000 by 100</text>
<rect x="975" y="145" width="190" height="135" rx="15" fill="#f5f5f5" stroke="#222"/><text x="1070" y="185" font-size="16" font-weight="700">Interpret</text><text x="1070" y="215" font-size="14">illustrative thresholds only</text>
</g>
<g stroke="#222" stroke-width="2"><line x1="225" y1="212" x2="270" y2="212"/><line x1="460" y1="212" x2="505" y2="212"/><line x1="695" y1="212" x2="740" y2="212"/><line x1="930" y1="212" x2="975" y2="212"/></g>
</svg>