<svg xmlns="http://www.w3.org/2000/svg" width="1200" height="500" viewBox="0 0 1200 500">
<rect width="1200" height="500" fill="white"/>
<text x="50" y="50" font-family="Arial" font-size="29" font-weight="700">Bootstrap Threshold Frontier</text>
<text x="50" y="78" font-family="Arial" font-size="15">Illustrative minimum RE78 gain thresholds in historical 1982 U.S. dollars</text>
<line x1="100" y1="400" x2="1100" y2="400" stroke="#222"/><line x1="100" y1="100" x2="100" y2="400" stroke="#222"/>
<polyline points="100.0,100.7 125.0,101.6 150.0,102.3 175.0,103.1 200.0,104.4 225.0,106.8 250.0,110.5 275.0,114.6 300.0,119.4 325.0,126.0 350.0,133.7 375.0,143.1 400.0,155.4 425.0,168.8 450.0,182.2 475.0,199.2 500.0,216.2 525.0,233.9 550.0,252.5 575.0,268.2 600.0,285.5 625.0,300.7 650.0,315.8 675.0,330.4 700.0,342.7 725.0,354.1 750.0,365.0 775.0,372.3 800.0,379.0 825.0,385.0 850.0,389.0 875.0,392.1 900.0,394.5 925.0,396.3 950.0,397.5 975.0,398.0 1000.0,398.6 1025.0,399.0 1050.0,399.4 1075.0,399.6 1100.0,399.8" fill="none" stroke="#333" stroke-width="3"/>
<text x="600" y="455" text-anchor="middle" font-family="Arial" font-size="15">Minimum-gain threshold (1982 U.S. dollars)</text>
<text x="28" y="250" transform="rotate(-90 28 250)" text-anchor="middle" font-family="Arial" font-size="15">Bootstrap exceedance fraction</text>
<text x="100" y="420" font-family="Arial" font-size="12">0</text><text x="1060" y="420" font-family="Arial" font-size="12">4,000</text>
<text x="65" y="405" font-family="Arial" font-size="12">0.0</text><text x="65" y="105" font-family="Arial" font-size="12">1.0</text>
</svg>